<?xml version="1.0" encoding="utf-8"?>
<!-- Generator: Adobe Illustrator 18.0.0, SVG Export Plug-In . SVG Version: 6.00 Build 0)  -->
<!DOCTYPE svg PUBLIC "-//W3C//DTD SVG 1.1 Tiny//EN" "http://www.w3.org/Graphics/SVG/1.1/DTD/svg11-tiny.dtd">
<svg version="1.1" baseProfile="tiny" id="Layer_2" xmlns="http://www.w3.org/2000/svg" xmlns:xlink="http://www.w3.org/1999/xlink"
	 x="0px" y="0px" viewBox="0 0 203.4 102.1" display="none" xml:space="preserve">
<path display="inline" fill-rule="evenodd" fill="#212121" d="M15,0.5l173.3-0.4c8.3,0,15,6.7,15,15l0.2,71.7c0,8.3-6.7,15-15,15
	l-173.3,0.4c-8.3,0-15-6.7-15-15L0,15.5C0,7.2,6.7,0.5,15,0.5z"/>
<path display="inline" fill-rule="evenodd" fill="#4B4B4B" d="M15,0.5c-8.3,0-15,6.7-15,15l0.2,71.4c0,4.9,2.3,9.2,5.9,11.9
	l98.5-98.5L15,0.5z"/>
<path display="inline" fill-rule="evenodd" fill="#737373" d="M12.7,48.1c3.3,0,6,2.7,6,6c0,3.3-2.7,6-6,6c-3.3,0-6-2.7-6-6
	C6.7,50.8,9.4,48.1,12.7,48.1z"/>
<path display="inline" fill-rule="evenodd" fill="#80C8F2" d="M27.2,9.1l164-0.4l0.2,83l-164,0.4L27.2,9.1z"/>
<polygon display="inline" fill-rule="evenodd" fill="#98D2F4" points="27.2,9.1 27.3,77.6 96,8.9 "/>
<polygon display="inline" fill-rule="evenodd" fill="#5F95B5" points="166.7,22.9 140.4,43.4 118.4,21.8 85.1,33.5 72.1,19.9 
	49.9,24.6 43.4,31.9 36.2,77.8 50.1,92 191.3,91.7 191.2,33.8 178.4,21.4 "/>
<polygon display="inline" fill-rule="evenodd" fill="#7DA9C4" points="78.4,26.5 72.1,19.9 49.9,24.6 43.4,31.9 37.9,67 "/>
<g display="inline">
	<polygon fill="#FFEA00" points="72,20 35.7,20.1 35.9,78.2 49.3,78.2 49.3,54.8 70.6,54.8 70.6,44.1 49.3,44.1 49.2,30.9 72,30.8 	
		"/>
	<path fill="#FFEA00" d="M105.8,19c-16.6,0-27.3,13.1-27.3,30.5c0,16.6,9.8,29.5,26.5,29.5c16.4,0,27.6-11.6,27.5-30.7
		C132.5,32.3,123,19,105.8,19z M105.6,68.6c-8.5,0-13.7-8-13.7-19.4c0-11.3,5-19.8,13.6-19.8c8.8,0,13.6,8.9,13.6,19.4
		C119.1,60.1,114.2,68.6,105.6,68.6z"/>
	<path fill="#FFEA00" d="M180.7,44.6l-18.2,0l0,10.3l7.6,0l0,12.2c-0.9,0.5-2.9,0.9-5.5,0.9c-9.1,0-15.4-7-15.5-19
		c0-12.6,6.9-18.8,16.2-18.8c5.4,0,8.7,1.1,11.4,2.5l2.3-10.5c-2.4-1.4-7.3-2.8-13.6-2.8c-16.1,0-27.9,11.1-27.9,30.4
		c-0.1,8.5,2.4,16.1,7,21.1c4.5,5.2,11,7.8,19.9,7.8c6.5,0,12.9-1.9,16.3-3.3L180.7,44.6z"/>
</g>
<polygon display="inline" fill-rule="evenodd" fill="#FFEE30" points="49.2,30.9 72,30.8 72,20 35.7,20.1 35.8,69 49.3,55.6 
	49.3,54.8 50.1,54.8 60.8,44.1 49.3,44.1 "/>
</svg>
